<mxfile host="app.diagrams.net" modified="2020-11-28T07:55:33.985Z" agent="5.0 (Macintosh; Intel Mac OS X 11_0_0) AppleWebKit/537.36 (KHTML, like Gecko) Chrome/86.0.4240.198 Safari/537.36" etag="QbQuXx4SrtOi8vGDO7TO" version="13.10.4" type="github">
  <diagram id="qurPalQU5vGXZUQtBJk0" name="Page-1">
    <mxGraphModel dx="542" dy="801" grid="1" gridSize="10" guides="1" tooltips="1" connect="1" arrows="1" fold="1" page="1" pageScale="1" pageWidth="1169" pageHeight="1654" math="0" shadow="0">
      <root>
        <mxCell id="0" />
        <mxCell id="1" parent="0" />
        <mxCell id="GTkM62v5i_zwBmHgLe6R-32" value="" style="rounded=0;whiteSpace=wrap;html=1;fillColor=#f8cecc;fontSize=9;align=left;strokeColor=#b85450;" vertex="1" parent="1">
          <mxGeometry x="610" y="470" width="10" height="20" as="geometry" />
        </mxCell>
        <mxCell id="GTkM62v5i_zwBmHgLe6R-29" value="" style="rounded=0;whiteSpace=wrap;html=1;fillColor=#ffe6cc;fontSize=9;align=left;strokeColor=#d79b00;" vertex="1" parent="1">
          <mxGeometry x="420" y="260" width="20" height="20" as="geometry" />
        </mxCell>
        <mxCell id="GTkM62v5i_zwBmHgLe6R-30" value="" style="rounded=0;whiteSpace=wrap;html=1;fillColor=#ffe6cc;fontSize=9;align=left;strokeColor=#d79b00;" vertex="1" parent="1">
          <mxGeometry x="520" y="260" width="20" height="20" as="geometry" />
        </mxCell>
        <mxCell id="GTkM62v5i_zwBmHgLe6R-4" value="y-axis" style="endArrow=classic;html=1;fontSize=12;align=left;strokeColor=#999999;" edge="1" parent="1">
          <mxGeometry x="0.9683" y="10" width="50" height="50" relative="1" as="geometry">
            <mxPoint x="480" y="190" as="sourcePoint" />
            <mxPoint x="480" y="760" as="targetPoint" />
            <mxPoint as="offset" />
          </mxGeometry>
        </mxCell>
        <mxCell id="GTkM62v5i_zwBmHgLe6R-52" value="ObjectGenerator::Generate() boundary" style="rounded=0;whiteSpace=wrap;html=1;fillColor=#f5f5f5;fontSize=12;align=center;dashed=1;strokeColor=#666666;fontColor=#333333;" vertex="1" parent="1">
          <mxGeometry x="320" y="680" width="400" height="40" as="geometry" />
        </mxCell>
        <mxCell id="GTkM62v5i_zwBmHgLe6R-39" value="" style="rounded=0;whiteSpace=wrap;html=1;fillColor=none;" vertex="1" parent="1">
          <mxGeometry x="360" y="480" width="320" height="180" as="geometry" />
        </mxCell>
        <mxCell id="GTkM62v5i_zwBmHgLe6R-6" value="x-axis" style="endArrow=classic;html=1;fontSize=12;align=left;strokeColor=#999999;" edge="1" parent="1">
          <mxGeometry x="0.8214" y="10" width="50" height="50" relative="1" as="geometry">
            <mxPoint x="200" y="230" as="sourcePoint" />
            <mxPoint x="760" y="230" as="targetPoint" />
            <mxPoint as="offset" />
          </mxGeometry>
        </mxCell>
        <mxCell id="GTkM62v5i_zwBmHgLe6R-7" value="" style="endArrow=classic;startArrow=classic;html=1;fontSize=12;align=left;" edge="1" parent="1">
          <mxGeometry width="50" height="50" relative="1" as="geometry">
            <mxPoint x="320" y="460" as="sourcePoint" />
            <mxPoint x="640" y="460" as="targetPoint" />
          </mxGeometry>
        </mxCell>
        <mxCell id="GTkM62v5i_zwBmHgLe6R-8" value="size_x" style="edgeLabel;html=1;align=right;verticalAlign=middle;resizable=0;points=[];fontSize=10;spacing=2;labelBorderColor=#FFFFFF;" vertex="1" connectable="0" parent="GTkM62v5i_zwBmHgLe6R-7">
          <mxGeometry x="0.5875" y="4" relative="1" as="geometry">
            <mxPoint x="-204.29000000000002" y="2" as="offset" />
          </mxGeometry>
        </mxCell>
        <mxCell id="GTkM62v5i_zwBmHgLe6R-9" value="" style="endArrow=classic;startArrow=classic;html=1;fontSize=12;align=left;" edge="1" parent="1">
          <mxGeometry width="50" height="50" relative="1" as="geometry">
            <mxPoint x="650" y="270" as="sourcePoint" />
            <mxPoint x="650" y="450" as="targetPoint" />
          </mxGeometry>
        </mxCell>
        <mxCell id="GTkM62v5i_zwBmHgLe6R-10" value="size_y" style="edgeLabel;html=1;align=left;verticalAlign=middle;resizable=0;points=[];fontSize=10;labelBorderColor=#FFFFFF;" vertex="1" connectable="0" parent="GTkM62v5i_zwBmHgLe6R-9">
          <mxGeometry x="0.5875" y="4" relative="1" as="geometry">
            <mxPoint x="-14" y="-122.86" as="offset" />
          </mxGeometry>
        </mxCell>
        <mxCell id="GTkM62v5i_zwBmHgLe6R-26" value="slight offset from&lt;br style=&quot;font-size: 9px;&quot;&gt;player position" style="endArrow=classicThin;startArrow=classicThin;html=1;strokeColor=#000000;strokeWidth=1;fontSize=9;align=right;endSize=4;startSize=4;startFill=1;endFill=1;" edge="1" parent="1">
          <mxGeometry y="9" width="50" height="50" relative="1" as="geometry">
            <mxPoint x="449" y="360" as="sourcePoint" />
            <mxPoint x="449" y="340" as="targetPoint" />
            <mxPoint as="offset" />
          </mxGeometry>
        </mxCell>
        <mxCell id="GTkM62v5i_zwBmHgLe6R-1" value="" style="rounded=0;whiteSpace=wrap;html=1;fillColor=none;" vertex="1" parent="1">
          <mxGeometry x="320" y="270" width="320" height="180" as="geometry" />
        </mxCell>
        <mxCell id="GTkM62v5i_zwBmHgLe6R-2" value="Camera" style="text;html=1;strokeColor=none;fillColor=none;align=left;verticalAlign=middle;whiteSpace=wrap;rounded=0;" vertex="1" parent="1">
          <mxGeometry x="320" y="250" width="170" height="20" as="geometry" />
        </mxCell>
        <mxCell id="GTkM62v5i_zwBmHgLe6R-11" value="" style="rounded=0;whiteSpace=wrap;html=1;fillColor=#dae8fc;fontSize=12;align=left;strokeColor=#6c8ebf;" vertex="1" parent="1">
          <mxGeometry x="470" y="330" width="20" height="20" as="geometry" />
        </mxCell>
        <mxCell id="GTkM62v5i_zwBmHgLe6R-21" value="" style="group" vertex="1" connectable="0" parent="1">
          <mxGeometry x="475" y="353.5" width="110" height="13" as="geometry" />
        </mxCell>
        <mxCell id="GTkM62v5i_zwBmHgLe6R-19" value="" style="endArrow=none;html=1;strokeColor=#000000;fontSize=12;align=left;strokeWidth=2;" edge="1" parent="GTkM62v5i_zwBmHgLe6R-21">
          <mxGeometry width="50" height="50" relative="1" as="geometry">
            <mxPoint y="11" as="sourcePoint" />
            <mxPoint x="10" y="1" as="targetPoint" />
          </mxGeometry>
        </mxCell>
        <mxCell id="GTkM62v5i_zwBmHgLe6R-18" value="(center_x, center_y)" style="text;html=1;strokeColor=none;fillColor=none;align=left;verticalAlign=bottom;whiteSpace=wrap;rounded=0;fontSize=10;" vertex="1" parent="GTkM62v5i_zwBmHgLe6R-21">
          <mxGeometry x="12" width="98" height="13" as="geometry" />
        </mxCell>
        <mxCell id="GTkM62v5i_zwBmHgLe6R-20" value="" style="endArrow=none;html=1;strokeColor=#000000;fontSize=12;align=left;strokeWidth=2;" edge="1" parent="GTkM62v5i_zwBmHgLe6R-21">
          <mxGeometry width="50" height="50" relative="1" as="geometry">
            <mxPoint y="1" as="sourcePoint" />
            <mxPoint x="10" y="11" as="targetPoint" />
            <Array as="points">
              <mxPoint y="1" />
            </Array>
          </mxGeometry>
        </mxCell>
        <mxCell id="GTkM62v5i_zwBmHgLe6R-23" value="" style="endArrow=none;dashed=1;html=1;strokeColor=#000000;strokeWidth=1;fontSize=10;align=left;" edge="1" parent="1">
          <mxGeometry x="320" y="250" width="50" height="50" as="geometry">
            <mxPoint x="440" y="339.65999999999997" as="sourcePoint" />
            <mxPoint x="480" y="339.65999999999997" as="targetPoint" />
          </mxGeometry>
        </mxCell>
        <mxCell id="GTkM62v5i_zwBmHgLe6R-25" value="" style="endArrow=none;dashed=1;html=1;strokeColor=#000000;strokeWidth=1;fontSize=10;align=left;" edge="1" parent="1">
          <mxGeometry x="320" y="250" width="50" height="50" as="geometry">
            <mxPoint x="439.9999999999999" y="359.65999999999985" as="sourcePoint" />
            <mxPoint x="479.9999999999999" y="359.65999999999985" as="targetPoint" />
          </mxGeometry>
        </mxCell>
        <mxCell id="GTkM62v5i_zwBmHgLe6R-27" value="" style="rounded=0;whiteSpace=wrap;html=1;fillColor=#ffe6cc;fontSize=9;align=left;strokeColor=#d79b00;" vertex="1" parent="1">
          <mxGeometry x="510" y="410" width="20" height="20" as="geometry" />
        </mxCell>
        <mxCell id="GTkM62v5i_zwBmHgLe6R-28" value="" style="rounded=0;whiteSpace=wrap;html=1;fillColor=#ffe6cc;fontSize=9;align=left;strokeColor=#d79b00;" vertex="1" parent="1">
          <mxGeometry x="575" y="390" width="20" height="20" as="geometry" />
        </mxCell>
        <mxCell id="GTkM62v5i_zwBmHgLe6R-31" value="" style="rounded=0;whiteSpace=wrap;html=1;fillColor=#f8cecc;fontSize=9;align=left;strokeColor=#b85450;" vertex="1" parent="1">
          <mxGeometry x="350" y="390" width="10" height="20" as="geometry" />
        </mxCell>
        <mxCell id="GTkM62v5i_zwBmHgLe6R-33" value="" style="rounded=0;whiteSpace=wrap;html=1;fillColor=#ffe6cc;fontSize=9;align=left;strokeColor=#d79b00;" vertex="1" parent="1">
          <mxGeometry x="390" y="490" width="20" height="20" as="geometry" />
        </mxCell>
        <mxCell id="GTkM62v5i_zwBmHgLe6R-34" value="" style="rounded=0;whiteSpace=wrap;html=1;fillColor=#ffe6cc;fontSize=9;align=left;strokeColor=#d79b00;" vertex="1" parent="1">
          <mxGeometry x="370" y="490" width="20" height="20" as="geometry" />
        </mxCell>
        <mxCell id="GTkM62v5i_zwBmHgLe6R-35" value="" style="rounded=0;whiteSpace=wrap;html=1;fillColor=#ffe6cc;fontSize=9;align=left;strokeColor=#d79b00;" vertex="1" parent="1">
          <mxGeometry x="450" y="550" width="20" height="20" as="geometry" />
        </mxCell>
        <mxCell id="GTkM62v5i_zwBmHgLe6R-36" value="" style="rounded=0;whiteSpace=wrap;html=1;fillColor=#f8cecc;fontSize=9;align=left;strokeColor=#b85450;" vertex="1" parent="1">
          <mxGeometry x="440" y="540" width="10" height="20" as="geometry" />
        </mxCell>
        <mxCell id="GTkM62v5i_zwBmHgLe6R-37" value="" style="rounded=0;whiteSpace=wrap;html=1;fillColor=#d5e8d4;fontSize=9;align=left;strokeColor=#82b366;" vertex="1" parent="1">
          <mxGeometry x="530" y="510" width="10" height="10" as="geometry" />
        </mxCell>
        <mxCell id="GTkM62v5i_zwBmHgLe6R-38" value="" style="rounded=0;whiteSpace=wrap;html=1;fillColor=#d5e8d4;fontSize=9;align=left;strokeColor=#82b366;" vertex="1" parent="1">
          <mxGeometry x="410" y="545" width="10" height="10" as="geometry" />
        </mxCell>
        <mxCell id="GTkM62v5i_zwBmHgLe6R-40" value="" style="group" vertex="1" connectable="0" parent="1">
          <mxGeometry x="510" y="563.5" width="110" height="13" as="geometry" />
        </mxCell>
        <mxCell id="GTkM62v5i_zwBmHgLe6R-41" value="" style="endArrow=none;html=1;strokeColor=#000000;fontSize=12;align=left;strokeWidth=2;" edge="1" parent="GTkM62v5i_zwBmHgLe6R-40">
          <mxGeometry width="50" height="50" relative="1" as="geometry">
            <mxPoint y="11" as="sourcePoint" />
            <mxPoint x="10" y="1" as="targetPoint" />
          </mxGeometry>
        </mxCell>
        <mxCell id="GTkM62v5i_zwBmHgLe6R-42" value="(center_x, center_y)" style="text;html=1;strokeColor=none;fillColor=none;align=left;verticalAlign=bottom;whiteSpace=wrap;rounded=0;fontSize=10;" vertex="1" parent="GTkM62v5i_zwBmHgLe6R-40">
          <mxGeometry x="12" width="98" height="13" as="geometry" />
        </mxCell>
        <mxCell id="GTkM62v5i_zwBmHgLe6R-43" value="" style="endArrow=none;html=1;strokeColor=#000000;fontSize=12;align=left;strokeWidth=2;" edge="1" parent="GTkM62v5i_zwBmHgLe6R-40">
          <mxGeometry width="50" height="50" relative="1" as="geometry">
            <mxPoint y="1" as="sourcePoint" />
            <mxPoint x="10" y="11" as="targetPoint" />
            <Array as="points">
              <mxPoint y="1" />
            </Array>
          </mxGeometry>
        </mxCell>
        <mxCell id="GTkM62v5i_zwBmHgLe6R-44" value="" style="rounded=0;whiteSpace=wrap;html=1;fillColor=#dae8fc;fontSize=12;align=left;strokeColor=#6c8ebf;" vertex="1" parent="1">
          <mxGeometry x="505" y="540" width="20" height="20" as="geometry" />
        </mxCell>
        <mxCell id="GTkM62v5i_zwBmHgLe6R-45" value="camera moves with player" style="endArrow=classic;html=1;strokeColor=#000000;strokeWidth=1;fontSize=9;align=left;curved=1;dashed=1;entryX=0.5;entryY=0.5;entryDx=0;entryDy=0;entryPerimeter=0;verticalAlign=middle;horizontal=1;fontStyle=7" edge="1" parent="1" target="GTkM62v5i_zwBmHgLe6R-44">
          <mxGeometry x="0.1665" y="13" width="50" height="50" relative="1" as="geometry">
            <mxPoint x="480" y="340" as="sourcePoint" />
            <mxPoint x="570" y="480" as="targetPoint" />
            <Array as="points">
              <mxPoint x="480" y="490" />
            </Array>
            <mxPoint as="offset" />
          </mxGeometry>
        </mxCell>
        <mxCell id="GTkM62v5i_zwBmHgLe6R-46" value="" style="rounded=0;whiteSpace=wrap;html=1;fillColor=#ffe6cc;fontSize=9;align=left;strokeColor=#d79b00;" vertex="1" parent="1">
          <mxGeometry x="430" y="620" width="20" height="20" as="geometry" />
        </mxCell>
        <mxCell id="GTkM62v5i_zwBmHgLe6R-47" value="" style="rounded=0;whiteSpace=wrap;html=1;fillColor=#ffe6cc;fontSize=9;align=left;strokeColor=#d79b00;" vertex="1" parent="1">
          <mxGeometry x="540" y="600" width="20" height="20" as="geometry" />
        </mxCell>
        <mxCell id="GTkM62v5i_zwBmHgLe6R-48" value="" style="rounded=0;whiteSpace=wrap;html=1;fillColor=#ffe6cc;fontSize=9;align=left;strokeColor=#d79b00;" vertex="1" parent="1">
          <mxGeometry x="560" y="600" width="20" height="20" as="geometry" />
        </mxCell>
        <mxCell id="GTkM62v5i_zwBmHgLe6R-49" value="" style="rounded=0;whiteSpace=wrap;html=1;fillColor=#ffe6cc;fontSize=9;align=left;strokeColor=#d79b00;" vertex="1" parent="1">
          <mxGeometry x="560" y="580" width="20" height="20" as="geometry" />
        </mxCell>
        <mxCell id="GTkM62v5i_zwBmHgLe6R-50" value="" style="rounded=0;whiteSpace=wrap;html=1;fillColor=#ffe6cc;fontSize=9;align=left;strokeColor=#d79b00;" vertex="1" parent="1">
          <mxGeometry x="640" y="690" width="20" height="20" as="geometry" />
        </mxCell>
        <mxCell id="GTkM62v5i_zwBmHgLe6R-53" value="" style="rounded=0;whiteSpace=wrap;html=1;fillColor=#dae8fc;fontSize=12;align=left;strokeColor=#6c8ebf;dashed=1;" vertex="1" parent="1">
          <mxGeometry x="470" y="220" width="20" height="20" as="geometry" />
        </mxCell>
        <mxCell id="GTkM62v5i_zwBmHgLe6R-54" value="Starting position of player is (0.0, 0.0)" style="text;html=1;strokeColor=none;fillColor=none;align=left;verticalAlign=middle;whiteSpace=wrap;rounded=0;dashed=1;fontSize=10;" vertex="1" parent="1">
          <mxGeometry x="495" y="200" width="90" height="20" as="geometry" />
        </mxCell>
        <mxCell id="GTkM62v5i_zwBmHgLe6R-55" value="ObjectGenerator generates random objects within this boundary" style="text;html=1;strokeColor=none;fillColor=none;align=left;verticalAlign=top;whiteSpace=wrap;rounded=0;dashed=1;fontSize=10;" vertex="1" parent="1">
          <mxGeometry x="320" y="720" width="130" height="40" as="geometry" />
        </mxCell>
        <mxCell id="GTkM62v5i_zwBmHgLe6R-56" value="SceneManager::Render() renders all objects within this boundary" style="text;html=1;strokeColor=none;fillColor=none;align=left;verticalAlign=top;whiteSpace=wrap;rounded=0;dashed=1;fontSize=10;" vertex="1" parent="1">
          <mxGeometry x="220" y="480" width="130" height="40" as="geometry" />
        </mxCell>
        <mxCell id="GTkM62v5i_zwBmHgLe6R-57" value="" style="rounded=0;whiteSpace=wrap;html=1;fillColor=#d5e8d4;fontSize=9;align=left;strokeColor=#82b366;" vertex="1" parent="1">
          <mxGeometry x="540" y="640" width="10" height="10" as="geometry" />
        </mxCell>
        <mxCell id="GTkM62v5i_zwBmHgLe6R-58" value="GameObject" style="text;html=1;strokeColor=none;fillColor=none;align=left;verticalAlign=bottom;whiteSpace=wrap;rounded=0;dashed=1;fontSize=8;fontStyle=2" vertex="1" parent="1">
          <mxGeometry x="540" y="250" width="80" height="10" as="geometry" />
        </mxCell>
        <mxCell id="GTkM62v5i_zwBmHgLe6R-59" value="Player" style="text;html=1;strokeColor=none;fillColor=none;align=left;verticalAlign=bottom;whiteSpace=wrap;rounded=0;dashed=1;fontSize=8;fontStyle=2" vertex="1" parent="1">
          <mxGeometry x="490" y="320" width="80" height="10" as="geometry" />
        </mxCell>
        <mxCell id="GTkM62v5i_zwBmHgLe6R-60" value="MovableObject" style="text;html=1;strokeColor=none;fillColor=none;align=left;verticalAlign=bottom;whiteSpace=wrap;rounded=0;dashed=1;fontSize=8;fontStyle=2" vertex="1" parent="1">
          <mxGeometry x="360" y="380" width="80" height="10" as="geometry" />
        </mxCell>
        <mxCell id="GTkM62v5i_zwBmHgLe6R-63" value="Item" style="text;html=1;strokeColor=none;fillColor=none;align=left;verticalAlign=bottom;whiteSpace=wrap;rounded=0;dashed=1;fontSize=8;fontStyle=2" vertex="1" parent="1">
          <mxGeometry x="540" y="500" width="80" height="10" as="geometry" />
        </mxCell>
      </root>
    </mxGraphModel>
  </diagram>
</mxfile>
